<svg width="50" height="50" viewBox="0 0 50 50" fill="none" xmlns="http://www.w3.org/2000/svg">
    <rect x="0.5" y="0.5" width="49" height="49" />
    <path d="M35.4166 4.16667H14.5833C8.83033 4.16667 4.16663 8.83037 4.16663 14.5833V35.4167C4.16663 41.1696 8.83033 45.8333 14.5833 45.8333H35.4166C41.1696 45.8333 45.8333 41.1696 45.8333 35.4167V14.5833C45.8333 8.83037 41.1696 4.16667 35.4166 4.16667Z" stroke="white" stroke-width="4" stroke-linecap="round" stroke-linejoin="round" />
    <path d="M33.3334 23.6875C33.5905 25.4213 33.2943 27.1921 32.487 28.748C31.6797 30.3038 30.4024 31.5654 28.8368 32.3535C27.2711 33.1415 25.4968 33.4158 23.7663 33.1374C22.0357 32.8589 20.437 32.0418 19.1976 30.8024C17.9582 29.563 17.1411 27.9643 16.8627 26.2338C16.5842 24.5032 16.8585 22.7289 17.6466 21.1633C18.4346 19.5976 19.6963 18.3203 21.2521 17.513C22.8079 16.7057 24.5787 16.4096 26.3125 16.6667C28.0811 16.9289 29.7185 17.7531 30.9827 19.0173C32.247 20.2816 33.0711 21.9189 33.3334 23.6875Z" stroke="white" stroke-width="4" stroke-linecap="round" stroke-linejoin="round" />
    <path d="M36.4584 13.5417H36.4792" stroke="white" stroke-width="4" stroke-linecap="round" stroke-linejoin="round" />
</svg>