<svg width="50" height="50" viewBox="0 0 50 50" fill="none" xmlns="http://www.w3.org/2000/svg">
    <rect x="0.5" y="0.5" width="49" height="49" />
    <path d="M47.9167 6.25C45.9217 7.65724 43.7128 8.73356 41.375 9.4375C40.1203 7.99481 38.4528 6.97227 36.598 6.50818C34.7432 6.04408 32.7907 6.16082 31.0044 6.84261C29.2181 7.5244 27.6843 8.73834 26.6104 10.3202C25.5365 11.9021 24.9744 13.7757 25 15.6875V17.7708C21.3389 17.8658 17.711 17.0538 14.4396 15.4072C11.1683 13.7606 8.35487 11.3305 6.25004 8.33333C6.25004 8.33333 -2.08329 27.0833 16.6667 35.4167C12.3761 38.3291 7.26495 39.7894 2.08337 39.5833C20.8334 50 43.75 39.5833 43.75 15.625C43.7481 15.0447 43.6923 14.4658 43.5834 13.8958C45.7096 11.7989 47.2101 9.15148 47.9167 6.25Z" stroke="white" stroke-width="4" stroke-linecap="round" stroke-linejoin="round" />
</svg>