<svg width="50" height="50" viewBox="0 0 50 50" fill="none" xmlns="http://www.w3.org/2000/svg">
    <rect x="0.5" y="0.5" width="49" height="49" />
    <path d="M46.9583 13.375C46.7109 12.3863 46.2069 11.4804 45.4972 10.7488C44.7876 10.0172 43.8974 9.4858 42.9167 9.20833C39.3333 8.33333 25 8.33333 25 8.33333C25 8.33333 10.6667 8.33333 7.08334 9.29166C6.10261 9.56913 5.21246 10.1005 4.50282 10.8321C3.79317 11.5637 3.28915 12.4696 3.04168 13.4583C2.38587 17.0949 2.06509 20.784 2.08334 24.4792C2.05997 28.2022 2.38078 31.9194 3.04168 35.5833C3.31451 36.5413 3.82982 37.4128 4.53781 38.1135C5.24581 38.8142 6.12255 39.3204 7.08334 39.5833C10.6667 40.5417 25 40.5417 25 40.5417C25 40.5417 39.3333 40.5417 42.9167 39.5833C43.8974 39.3059 44.7876 38.7745 45.4972 38.0429C46.2069 37.3113 46.7109 36.4054 46.9583 35.4167C47.6091 31.8075 47.9299 28.1465 47.9167 24.4792C47.9401 20.7562 47.6192 17.039 46.9583 13.375Z" stroke="white" stroke-width="4"
        stroke-linecap="round" stroke-linejoin="round" />
    <path d="M20.3125 31.2917L32.2917 24.4792L20.3125 17.6667V31.2917Z" stroke="white" stroke-width="4" stroke-linecap="round" stroke-linejoin="round" />
</svg>